<svg xmlns="http://www.w3.org/2000/svg" viewBox="0 0 32 32">
  <rect width="32" height="32" rx="6" fill="#FF6B35"/>
  <path d="M16 6c-3.3 0-6 2.7-6 6 0 1.5.5 2.8 1.4 3.9-1.5.8-2.4 2.3-2.4 4.1 0 2.5 2 4.5 4.5 4.5h5c2.5 0 4.5-2 4.5-4.5 0-1.8-.9-3.3-2.4-4.1.9-1.1 1.4-2.4 1.4-3.9 0-3.3-2.7-6-6-6zm0 2c2.2 0 4 1.8 4 4 0 1.1-.4 2-1.1 2.8-.4.4-.5 1-.2 1.5.2.5.7.7 1.2.7 1 .5 1.6 1.4 1.6 2.5 0 1.4-1.1 2.5-2.5 2.5h-5c-1.4 0-2.5-1.1-2.5-2.5 0-1.1.6-2 1.6-2.5.5 0 1-.2 1.2-.7.3-.5.2-1.1-.2-1.5-.7-.8-1.1-1.7-1.1-2.8 0-2.2 1.8-4 4-4z" fill="#fff"/>
</svg>
